<?xml version="1.0" standalone="no"?>
<!DOCTYPE svg PUBLIC "-//W3C//DTD SVG 20010904//EN"
 "http://www.w3.org/TR/2001/REC-SVG-20010904/DTD/svg10.dtd">
<svg version="1.0" xmlns="http://www.w3.org/2000/svg"
 width="240.000000pt" height="240.000000pt" viewBox="0 0 240.000000 240.000000"
 preserveAspectRatio="xMidYMid meet">
<metadata>
Created by potrace 1.11, written by Peter Selinger 2001-2013
</metadata>
<g transform="translate(0.000000,240.000000) scale(0.100000,-0.100000)"
fill="#000000" stroke="none">
<path d="M75 2390 c-11 -4 -31 -20 -45 -35 l-25 -27 -2 -1116 c-2 -881 0
-1122 10 -1142 7 -13 28 -35 46 -47 l34 -23 1118 2 1119 3 32 33 33 32 2 1118
c2 881 0 1122 -10 1142 -7 13 -28 35 -46 47 l-34 23 -1106 -1 c-608 0 -1115
-4 -1126 -9z"/>
</g>
</svg>
