<?xml version="1.0" encoding="UTF-8"?>
<svg width="208px" height="92px" viewBox="0 0 208 92" version="1.1" xmlns="http://www.w3.org/2000/svg" xmlns:xlink="http://www.w3.org/1999/xlink">
    <!-- Generator: Sketch 52.5 (67469) - http://www.bohemiancoding.com/sketch -->
    <title>Group 44</title>
    <desc>Created with Sketch.</desc>
    <defs>
        <polygon id="path-1" points="0 0.626 154.041168 0.626 154.041168 46.0309693 0 46.0309693"></polygon>
        <polygon id="path-3" points="0.0729 0.967772111 201.4959 0.967772111 201.4959 60 0.0729 60"></polygon>
    </defs>
    <g id="Page-1" stroke="none" stroke-width="1" fill="none" fill-rule="evenodd">
        <g id="Group-44" transform="translate(0.000000, -1.000000)">
            <polygon id="Fill-1" fill="#FFFFFF" points="7.2141 62.8208 7.2141 77.1208 6.7931 77.1208 6.7931 62.8208 1.7381 62.8208 1.7381 62.3998 12.2681 62.3998 12.2681 62.8208"></polygon>
            <path d="M7.2145,77.3042 L6.7925,77.3042 L6.6095,77.1202 L6.6095,63.0042 L1.7385,63.0042 L1.5545,62.8212 L1.5545,62.4002 L1.7385,62.2152 L12.2685,62.2152 L12.4525,62.4002 L12.4525,62.8212 L12.2685,63.0042 L7.3985,63.0042 L7.3985,77.1202 L7.2145,77.3042 Z M6.9765,76.9382 L7.0305,76.9382 L7.0305,62.8212 L7.2145,62.6362 L12.0855,62.6362 L12.0855,62.5822 L1.9225,62.5822 L1.9225,62.6362 L6.7925,62.6362 L6.9765,62.8212 L6.9765,76.9382 Z" id="Fill-2" fill="#FFFFFF"></path>
            <polygon id="Fill-3" fill="#FFFFFF" points="28.7819 77.1206 28.7819 69.8966 18.1879 69.8966 18.1879 77.1206 17.7669 77.1206 17.7669 62.3986 18.1879 62.3986 18.1879 69.4756 28.7819 69.4756 28.7819 62.3986 29.2029 62.3986 29.2029 77.1206"></polygon>
            <path d="M29.2028,77.3042 L28.7818,77.3042 L28.5988,77.1202 L28.5988,70.0802 L18.3718,70.0802 L18.3718,77.1202 L18.1878,77.3042 L17.7668,77.3042 L17.5838,77.1202 L17.5838,62.4002 L17.7668,62.2152 L18.1878,62.2152 L18.3718,62.4002 L18.3718,69.2922 L28.5988,69.2922 L28.5988,62.4002 L28.7818,62.2152 L29.2028,62.2152 L29.3868,62.4002 L29.3868,77.1202 L29.2028,77.3042 Z M28.9658,76.9382 L29.0188,76.9382 L29.0188,62.5822 L28.9658,62.5822 L28.9658,69.4762 L28.7818,69.6592 L18.1878,69.6592 L18.0038,69.4762 L18.0038,62.5822 L17.9508,62.5822 L17.9508,76.9382 L18.0038,76.9382 L18.0038,69.8982 L18.1878,69.7132 L28.7818,69.7132 L28.9658,69.8982 L28.9658,76.9382 Z" id="Fill-4" fill="#FFFFFF"></path>
            <polygon id="Fill-5" fill="#FFFFFF" points="37.5441 62.8208 37.5441 69.3288 45.3581 69.3288 45.3581 69.7498 37.5441 69.7498 37.5441 76.6998 46.6221 76.6998 46.6221 77.1208 37.1231 77.1208 37.1231 62.3998 46.3271 62.3998 46.3271 62.8208"></polygon>
            <path d="M46.6218,77.3042 L37.1238,77.3042 L36.9398,77.1202 L36.9398,62.4002 L37.1238,62.2152 L46.3268,62.2152 L46.5108,62.4002 L46.5108,62.8212 L46.3268,63.0042 L37.7278,63.0042 L37.7278,69.1452 L45.3578,69.1452 L45.5418,69.3282 L45.5418,69.7492 L45.3578,69.9342 L37.7278,69.9342 L37.7278,76.5172 L46.6218,76.5172 L46.8058,76.7002 L46.8058,77.1202 L46.6218,77.3042 Z M37.3068,76.9382 L46.4378,76.9382 L46.4378,76.8832 L37.5438,76.8832 L37.3608,76.7002 L37.3608,69.7492 L37.5438,69.5672 L45.1748,69.5672 L45.1748,69.5112 L37.5438,69.5112 L37.3608,69.3282 L37.3608,62.8212 L37.5438,62.6362 L46.1428,62.6362 L46.1428,62.5822 L37.3068,62.5822 L37.3068,76.9382 Z" id="Fill-6" fill="#FFFFFF"></path>
            <g id="Group-43" transform="translate(0.000000, 0.374200)">
                <path d="M96.7956,61.6956 C99.7226,61.6956 101.4136,63.0616 101.4136,65.4456 C101.4136,67.3526 100.3296,68.6326 98.4216,68.9576 C100.8276,69.2396 102.2146,70.6486 102.2146,72.7946 C102.2146,75.3746 100.2426,76.8476 96.7956,76.8476 L90.7046,76.8476 L90.7046,61.6956 L96.7956,61.6956 Z M91.1376,68.7846 L96.7956,68.7846 C99.4616,68.7846 100.9806,67.5706 100.9806,65.4456 C100.9806,63.3426 99.4616,62.1296 96.7956,62.1296 L91.1376,62.1296 L91.1376,68.7846 Z M91.1376,76.4146 L96.7956,76.4146 C99.9826,76.4146 101.8026,75.0916 101.8026,72.7726 C101.8026,70.4966 99.9826,69.1966 96.7956,69.1966 L91.1376,69.1966 L91.1376,76.4146 Z" id="Fill-7" fill="#FFFFFF"></path>
                <path d="M96.7956,76.969 L90.7046,76.969 L90.5836,76.848 L90.5836,61.696 L90.7046,61.574 L96.7956,61.574 C99.8066,61.574 101.5336,62.986 101.5336,65.446 C101.5336,67.207 100.6346,68.451 99.0416,68.936 C101.1456,69.378 102.3356,70.759 102.3356,72.793 C102.3356,75.447 100.3166,76.969 96.7956,76.969 Z M90.8246,76.727 L96.7956,76.727 C100.1626,76.727 102.0936,75.293 102.0936,72.793 C102.0936,70.706 100.7506,69.352 98.4076,69.077 L98.3006,68.96 L98.4006,68.839 C100.2386,68.526 101.2926,67.288 101.2926,65.446 C101.2926,63.139 99.6536,61.816 96.7956,61.816 L90.8246,61.816 L90.8246,76.727 Z M96.7956,76.534 L91.1376,76.534 L91.0166,76.414 L91.0166,69.196 L91.1376,69.074 L96.7956,69.074 C100.0546,69.074 101.9236,70.423 101.9236,72.773 C101.9236,75.163 100.0546,76.534 96.7956,76.534 Z M91.2586,76.293 L96.7956,76.293 C99.9016,76.293 101.6826,75.011 101.6826,72.773 C101.6826,70.576 99.9016,69.317 96.7956,69.317 L91.2586,69.317 L91.2586,76.293 Z M96.7956,68.905 L91.1376,68.905 L91.0166,68.783 L91.0166,62.128 L91.1376,62.008 L96.7956,62.008 C99.5316,62.008 101.1006,63.261 101.1006,65.446 C101.1006,67.644 99.5316,68.905 96.7956,68.905 Z M91.2586,68.662 L96.7956,68.662 C99.3776,68.662 100.8586,67.49 100.8586,65.446 C100.8586,63.414 99.3776,62.249 96.7956,62.249 L91.2586,62.249 L91.2586,68.662 Z" id="Fill-9" fill="#FFFFFF"></path>
                <path d="M109.2194,72.2308 L107.1154,76.8478 L106.5964,76.8478 L113.5314,61.6958 L114.0094,61.6958 L121.0324,76.8478 L120.5334,76.8478 L118.4094,72.2308 L109.2194,72.2308 Z M113.7714,62.1938 L109.4134,71.7968 L118.2154,71.7968 L113.7714,62.1938 Z" id="Fill-11" fill="#FFFFFF"></path>
                <path d="M121.0329,76.969 L120.5339,76.969 L120.4259,76.899 L118.3329,72.352 L109.2979,72.352 L107.2259,76.898 L107.1159,76.969 L106.5959,76.969 L106.4939,76.912 L106.4859,76.798 L113.4239,61.645 L113.5329,61.574 L114.0099,61.574 L114.1189,61.645 L121.1419,76.798 L121.1359,76.912 L121.0329,76.969 Z M120.6119,76.727 L120.8449,76.727 L113.9319,61.816 L113.6099,61.816 L106.7839,76.727 L107.0399,76.727 L109.1089,72.181 L109.2199,72.11 L118.4099,72.11 L118.5189,72.181 L120.6119,76.727 Z M118.2159,71.917 L109.4149,71.917 L109.3119,71.863 L109.3039,71.746 L113.6619,62.144 L113.7699,62.073 L113.7709,62.073 L113.8809,62.144 L118.3249,71.746 L118.3169,71.862 L118.2159,71.917 Z M109.6009,71.676 L118.0259,71.676 L113.7719,62.484 L109.6009,71.676 Z" id="Fill-13" fill="#FFFFFF"></path>
                <polygon id="Fill-15" fill="#FFFFFF" points="137.7477 76.8479 127.0617 62.1289 127.0617 76.8479 126.6277 76.8479 126.6277 61.6949 127.2777 61.6949 137.9647 76.4139 137.9647 61.6949 138.3987 61.6949 138.3987 76.8479"></polygon>
                <path d="M138.3991,76.969 L137.7481,76.969 L137.6501,76.918 L127.1811,62.5 L127.1811,76.848 L127.0611,76.969 L126.6281,76.969 L126.5061,76.848 L126.5061,61.696 L126.6281,61.574 L127.2781,61.574 L127.3761,61.624 L137.8431,76.042 L137.8431,61.696 L137.9641,61.574 L138.3991,61.574 L138.5201,61.696 L138.5201,76.848 L138.3991,76.969 Z M137.8091,76.727 L138.2781,76.727 L138.2781,61.816 L138.0861,61.816 L138.0861,76.414 L138.0021,76.53 L137.8671,76.486 L127.2161,61.816 L126.7491,61.816 L126.7491,76.727 L126.9411,76.727 L126.9411,62.128 L127.0241,62.014 L127.1591,62.058 L137.8091,76.727 Z" id="Fill-17" fill="#FFFFFF"></path>
                <polygon id="Fill-19" fill="#FFFFFF" points="150.6042 76.8479 150.1692 76.8479 150.1692 71.0169 143.9932 61.6949 144.5132 61.6949 150.3882 70.5829 156.1752 61.6949 156.6952 61.6949 150.6042 71.0169"></polygon>
                <path d="M150.6042,76.969 L150.1692,76.969 L150.0502,76.848 L150.0502,71.053 L143.8922,61.762 L143.8862,61.639 L143.9932,61.574 L144.5132,61.574 L144.6132,61.628 L150.3872,70.363 L156.0742,61.63 L156.1752,61.574 L156.6952,61.574 L156.8022,61.638 L156.7962,61.762 L150.7252,71.053 L150.7252,76.848 L150.6042,76.969 Z M150.2912,76.727 L150.4832,76.727 L150.4832,71.017 L150.5032,70.95 L156.4722,61.816 L156.2412,61.816 L150.4892,70.649 L150.3882,70.703 L150.3872,70.703 L150.2872,70.65 L144.4482,61.816 L144.2172,61.816 L150.2712,70.949 L150.2912,71.017 L150.2912,76.727 Z" id="Fill-21" fill="#FFFFFF"></path>
                <path d="M161.488,72.2308 L159.385,76.8478 L158.865,76.8478 L165.802,61.6958 L166.278,61.6958 L173.302,76.8478 L172.803,76.8478 L170.679,72.2308 L161.488,72.2308 Z M166.04,62.1938 L161.683,71.7968 L170.484,71.7968 L166.04,62.1938 Z" id="Fill-23" fill="#FFFFFF"></path>
                <path d="M173.3024,76.969 L172.8034,76.969 L172.6944,76.899 L170.6014,72.352 L161.5654,72.352 L159.4954,76.898 L159.3854,76.969 L158.8644,76.969 L158.7634,76.912 L158.7554,76.798 L165.6914,61.645 L165.8014,61.574 L166.2784,61.574 L166.3884,61.645 L173.4114,76.798 L173.4044,76.912 L173.3024,76.969 Z M172.8814,76.727 L173.1134,76.727 L166.2014,61.816 L165.8794,61.816 L159.0524,76.727 L159.3074,76.727 L161.3784,72.181 L161.4884,72.11 L170.6794,72.11 L170.7884,72.181 L172.8814,76.727 Z M170.4844,71.917 L161.6834,71.917 L161.5814,71.863 L161.5734,71.746 L165.9304,62.144 L166.0394,62.073 L166.0404,62.073 L166.1494,62.144 L170.5944,71.746 L170.5864,71.862 L170.4844,71.917 Z M161.8704,71.676 L170.2954,71.676 L166.0414,62.484 L161.8704,71.676 Z" id="Fill-25" fill="#FFFFFF"></path>
                <polygon id="Fill-27" fill="#FFFFFF" points="190.0163 76.8479 179.3303 62.1289 179.3303 76.8479 178.8963 76.8479 178.8963 61.6949 179.5463 61.6949 190.2343 76.4139 190.2343 61.6949 190.6673 61.6949 190.6673 76.8479"></polygon>
                <path d="M190.6677,76.969 L190.0167,76.969 L189.9187,76.918 L179.4517,62.5 L179.4517,76.848 L179.3307,76.969 L178.8967,76.969 L178.7757,76.848 L178.7757,61.696 L178.8967,61.574 L179.5467,61.574 L179.6447,61.624 L190.1127,76.042 L190.1127,61.696 L190.2337,61.574 L190.6677,61.574 L190.7887,61.696 L190.7887,76.848 L190.6677,76.969 Z M190.0787,76.727 L190.5467,76.727 L190.5467,61.816 L190.3547,61.816 L190.3547,76.414 L190.2717,76.53 L190.1357,76.486 L179.4857,61.816 L179.0177,61.816 L179.0177,76.727 L179.2097,76.727 L179.2097,62.128 L179.2927,62.014 L179.4287,62.058 L190.0787,76.727 Z" id="Fill-29" fill="#FFFFFF"></path>
                <path d="M206.6237,62.8011 L206.4067,63.1481 C205.4317,62.5191 203.9357,62.1291 202.5917,62.1291 C199.9257,62.1291 198.1917,63.2791 198.1917,65.0551 C198.1917,70.1281 207.2957,67.5271 207.2517,73.1631 C207.2517,75.3951 205.2367,76.8481 202.1147,76.8481 C200.2067,76.8481 198.1917,76.0031 196.9337,74.7231 L197.2367,74.4201 C198.3857,75.6341 200.2937,76.4141 202.1147,76.4141 C204.9757,76.4141 206.8187,75.1361 206.8187,73.1631 C206.8627,67.9601 197.7577,70.5611 197.7577,65.0551 C197.7577,63.0181 199.6647,61.6951 202.5917,61.6951 C204.0007,61.6951 205.5827,62.1291 206.6237,62.8011" id="Fill-31" fill="#FFFFFF"></path>
                <path d="M202.1149,76.969 C200.2049,76.969 198.1369,76.12 196.8469,74.809 L196.8489,74.639 L197.1509,74.334 L197.2369,74.3 L197.2379,74.3 L197.3239,74.338 C198.4499,75.526 200.3299,76.293 202.1149,76.293 C204.8989,76.293 206.6979,75.065 206.6979,73.162 C206.7189,70.686 204.6019,70.044 202.3619,69.366 C200.0389,68.662 197.6359,67.935 197.6359,65.056 C197.6359,62.941 199.5819,61.574 202.5919,61.574 C204.0229,61.574 205.6309,62.016 206.6889,62.699 L206.7259,62.865 L206.5089,63.212 L206.4329,63.266 L206.3409,63.248 C205.3999,62.642 203.9269,62.249 202.5919,62.249 C199.9919,62.249 198.3119,63.351 198.3119,65.056 C198.3119,67.434 200.3899,68.062 202.5899,68.727 C204.9529,69.441 207.3959,70.18 207.3729,73.163 C207.3729,75.475 205.3089,76.969 202.1149,76.969 Z M197.1049,74.724 C198.3559,75.944 200.3079,76.727 202.1149,76.727 C205.1619,76.727 207.1309,75.327 207.1309,73.162 C207.1529,70.359 204.7979,69.647 202.5199,68.957 C200.3329,68.297 198.0709,67.613 198.0709,65.056 C198.0709,63.204 199.8439,62.008 202.5919,62.008 C203.9239,62.008 205.3879,62.388 206.3679,62.982 L206.4579,62.839 C205.4359,62.216 203.9349,61.816 202.5919,61.816 C199.7289,61.816 197.8779,63.088 197.8779,65.056 C197.8779,67.756 200.0899,68.426 202.4309,69.136 C204.6589,69.81 206.9619,70.508 206.9399,73.163 C206.9399,75.212 205.0459,76.534 202.1149,76.534 C200.3119,76.534 198.4119,75.776 197.2359,74.592 L197.1049,74.724 Z" id="Fill-33" fill="#FFFFFF"></path>
                <path d="M42.3859,19.2991 L42.4099,19.3091 L42.4999,19.3551 L42.7729,19.5481 C42.9759,19.7041 43.2629,19.9601 43.6649,20.0651 C44.0789,20.1961 44.5889,20.0531 44.8639,19.8951 L45.5999,19.5111 C45.6339,19.4931 45.9149,19.4461 46.1699,19.4201 C46.4409,19.3861 46.7229,19.3691 47.0579,19.2881 L47.3239,19.2131 C47.4259,19.1721 47.5099,19.1521 47.6929,19.0321 L47.8249,18.9341 L47.8449,18.9171 L47.9119,18.8541 L47.9219,18.8431 L47.9619,18.8001 L48.1299,18.6111 L48.3309,18.3401 C48.4059,18.2241 48.4799,18.0521 48.5139,17.9191 C48.5789,17.6541 48.5829,17.5581 48.6089,17.4141 C48.6379,17.2431 48.6619,17.2131 48.7839,17.0851 C48.9019,16.9771 49.0939,16.8681 49.3139,16.7831 L49.6639,16.6601 L50.0149,16.5591 C50.2229,16.5071 50.4399,16.4751 50.6679,16.4881 C51.5899,16.5261 52.5729,17.0611 53.5479,17.5961 L53.6639,17.6591 L53.8379,17.7251 L54.0739,17.7741 L54.4979,17.8351 C54.7739,17.8691 55.0449,17.9021 55.3029,17.9471 C55.4309,17.9701 55.5599,17.9971 55.6589,18.0311 L55.7019,18.0481 L55.7119,18.0891 L55.7839,18.3471 C55.8319,18.4721 55.9009,18.5861 56.0039,18.6731 C56.2129,18.8411 56.4179,18.8451 56.5749,18.8461 C56.8929,18.8381 57.1609,18.7651 57.3809,18.7801 C57.4479,18.7691 57.5849,18.8381 57.7479,18.8811 C57.9099,18.9251 58.0679,18.9221 58.2169,18.9181 C58.7979,18.8661 59.3229,18.7581 59.8739,18.7101 C60.9679,18.5941 62.0699,18.5641 63.1749,18.5691 L63.2039,18.5381 L63.1769,18.5051 C62.0759,18.4181 60.9679,18.3631 59.8569,18.3981 C59.3059,18.4071 58.7349,18.4701 58.2129,18.4631 C58.0869,18.4521 57.9659,18.4431 57.8619,18.4021 C57.7579,18.3691 57.6489,18.2801 57.4369,18.2481 C57.1059,18.1991 56.8229,18.2531 56.5889,18.2311 L56.3779,18.1631 L56.3619,18.1211 L56.3289,17.9401 L56.3049,17.8121 L56.2879,17.7371 C56.2299,17.5931 56.2869,17.7121 56.2209,17.5931 C56.1039,17.4431 56.0859,17.4611 56.0259,17.4121 L55.8969,17.3441 C55.7379,17.2721 55.5979,17.2281 55.4559,17.1851 C55.1759,17.1001 54.9019,17.0341 54.6329,16.9671 C54.3889,16.8991 54.0429,16.8311 53.9929,16.7471 C53.0669,16.0871 52.0789,15.3551 50.7799,15.1461 C50.4589,15.0941 50.1189,15.0991 49.7839,15.1491 L49.5379,15.1941 L49.3279,15.2481 C49.1819,15.2871 49.0369,15.3301 48.8839,15.3861 C48.5839,15.4931 48.2619,15.6341 47.9419,15.8981 C47.6259,16.1361 47.3179,16.6391 47.2449,17.0701 C47.2069,17.2221 47.1699,17.4271 47.1579,17.4531 L47.1599,17.4411 L47.0939,17.5181 L46.9679,17.6481 L46.9509,17.6641 L46.9499,17.6651 L46.9099,17.6921 L46.8959,17.6851 L46.7609,17.7191 C46.5549,17.7611 46.2869,17.7961 46.0089,17.8301 C45.7209,17.8831 45.4349,17.8701 44.9679,18.1171 C44.7049,18.2701 44.4319,18.4801 44.2539,18.6121 C44.0509,18.7471 43.9999,18.7941 43.8649,18.8021 L43.5999,18.7531 C43.5189,18.7271 43.3809,18.6571 43.2479,18.5961 C43.1079,18.5311 42.9579,18.4611 42.7689,18.4111 L42.4529,18.3701 L42.2709,18.3911 L42.1999,18.4061 L42.1759,18.4171 L42.1269,18.4361 C41.7129,18.5961 41.4949,18.9221 41.3229,19.1781 C41.1519,19.4401 41.0209,19.6911 40.8599,19.8421 C40.5269,20.1411 39.9439,20.2481 39.4009,20.4281 L39.3819,20.4351 L39.3699,20.4421 C38.7889,20.7801 38.2089,21.1221 37.6099,21.4191 C37.3119,21.5701 37.0139,21.7241 36.7199,21.8861 C36.5719,21.9601 36.4129,22.0631 36.2799,22.1581 C36.1299,22.2741 35.9949,22.3961 35.8699,22.5221 C35.3809,23.0421 34.9929,23.6231 34.5179,24.1111 C34.2829,24.3561 34.0299,24.5781 33.7539,24.7651 C33.4749,24.9451 33.1729,25.0781 32.8579,25.1731 L32.8359,25.2111 L32.8699,25.2361 C33.1949,25.1631 33.5139,25.0481 33.8129,24.8821 C34.1079,24.7101 34.3839,24.4961 34.6399,24.2631 C35.1499,23.7891 35.5889,23.2351 36.0869,22.7971 C36.2109,22.6861 36.3369,22.5881 36.4609,22.5041 C36.6079,22.4111 36.7399,22.3441 36.8879,22.2631 C37.1839,22.1061 37.4759,21.9391 37.7669,21.7711 C38.3399,21.4331 38.9319,21.1391 39.5229,20.8421 C40.0269,20.6811 40.5979,20.7221 41.1879,20.3261 C41.4679,20.1071 41.6529,19.8481 41.8349,19.6451 C42.0079,19.4361 42.2029,19.3081 42.3279,19.3031 L42.3799,19.2951 L42.4049,19.2891 L42.3859,19.2991 Z" id="Fill-35" fill="#FFFFFF"></path>
                <g id="Group-39">
                    <mask id="mask-2" fill="white">
                        <use xlink:href="#path-1"></use>
                    </mask>
                    <g id="Clip-38"></g>
                    <path d="M6.9377,25.4866 C7.5177,25.2056 8.0107,24.8446 8.4647,24.4286 C9.3527,23.5936 10.1547,22.5306 10.4777,21.0036 L10.5327,20.7186 L10.5617,20.3676 C10.5777,20.1256 10.5797,19.8716 10.5647,19.7806 L10.5487,19.5816 L10.5357,19.4326 L10.5387,19.4106 C10.5827,19.1546 10.7507,18.7156 10.9387,18.3706 C11.0307,18.1976 11.1397,18.0226 11.2127,17.9276 L11.2377,17.8936 L11.1957,17.9296 L11.1937,17.9226 L11.2297,17.8936 L11.2317,17.8916 L11.5007,17.7276 C11.9257,17.4646 12.3797,17.1796 12.8447,16.7946 C13.3107,16.4076 13.7207,15.9326 14.0637,15.4996 C14.2337,15.2856 14.4117,15.0446 14.5537,14.8466 C14.7137,14.6246 14.8747,14.3936 15.0257,14.1636 C15.3347,13.7076 15.6017,13.2076 15.8677,12.8246 C16.1397,12.4336 16.4007,12.2556 16.5717,12.3206 C16.7317,12.3566 17.0357,12.4336 17.3387,12.5206 C17.3917,12.5376 17.5077,12.5566 17.6347,12.5786 L17.8137,12.6016 L17.9027,12.6116 L17.8007,12.6326 C17.7707,12.6666 17.9997,12.7216 18.1777,12.7746 C18.3747,12.8266 18.5927,12.8766 18.8227,12.9226 C19.0627,12.9756 19.2767,13.0146 19.6337,13.0686 C19.9847,13.0716 20.3067,13.1476 20.7427,13.2156 L23.5147,13.7836 C24.0107,13.8796 24.5107,13.9986 25.0377,14.0836 L25.4377,14.1466 L25.8917,14.2046 L26.2547,14.2306 C26.4607,14.2496 26.6477,14.2226 26.8437,14.2156 C27.6417,14.1296 28.2607,13.6736 28.7207,13.2986 C29.1837,12.8966 29.5597,12.5196 29.9057,12.2046 C30.2507,11.8956 30.5707,11.6566 30.7947,11.5796 L30.9197,11.5516 L30.9767,11.5586 L31.1547,11.5556 L31.1977,11.5546 L31.1147,11.5596 L31.2297,11.5616 C31.3827,11.5636 31.5277,11.5596 31.6667,11.5526 C32.7627,11.4866 33.6207,11.2606 34.5077,11.1096 L34.8477,11.0456 L35.1347,10.9886 C35.2677,10.9626 35.3927,10.9166 35.5157,10.8626 C36.0117,10.6436 36.3407,10.2876 36.5667,10.0006 C36.7927,9.7076 36.9417,9.4446 37.0517,9.2596 L37.1627,9.0696 L37.1487,9.0536 L37.0287,9.1166 L36.9527,9.1346 L36.9867,9.1176 L37.0277,9.0976 L36.9377,9.1176 L36.9747,9.0996 L37.0457,9.0726 L37.2077,9.0416 C37.3377,9.0296 37.5547,9.0686 37.8587,9.1026 C38.0177,9.1196 38.1527,9.1306 38.3627,9.1266 C38.4857,9.1236 38.4547,9.1206 38.6017,9.1096 L38.9257,9.0396 C39.1427,8.9986 39.3407,8.8956 39.5287,8.7596 C39.7327,8.6386 39.8627,8.4786 39.9977,8.3196 C40.5047,7.6746 40.6477,7.0546 40.8197,6.5066 C40.9787,5.9506 41.0857,5.4336 41.2167,4.9606 C41.3397,4.4966 41.4977,4.0466 41.6497,3.8516 L41.7177,3.7716 C41.7077,3.7816 41.6187,3.7356 41.7857,3.7276 L41.9607,3.7056 L41.9907,3.7016 L42.0327,3.7016 L42.4247,3.6986 C43.4707,3.6636 44.4537,3.3786 45.3807,3.0866 C46.3057,2.7886 47.1867,2.4546 48.0427,2.2676 C48.8967,2.0736 49.7437,2.0896 50.4637,2.3656 C51.1717,2.6876 51.8827,3.4086 52.6157,4.0736 C53.3637,4.7406 54.1077,5.4906 55.1677,5.8726 C55.4637,5.9906 55.6677,5.9926 55.9067,6.0466 C56.0737,6.0606 56.2287,6.1576 56.3867,6.2716 C56.7047,6.5216 56.9807,6.9286 57.2797,7.3566 C57.5817,7.7676 57.9227,8.2726 58.5407,8.5136 C58.7187,8.5676 58.9037,8.5966 58.9977,8.5876 L59.0867,8.5896 L59.1737,8.5846 L59.2207,8.5776 L59.4077,8.5516 C59.6557,8.5186 59.8967,8.4726 60.1337,8.4216 C61.0797,8.2136 61.9907,7.9546 62.9007,7.8086 C63.3537,7.7366 63.8037,7.6806 64.2297,7.6846 C64.4407,7.6886 64.6427,7.7126 64.8247,7.7506 L65.0287,7.8186 L65.1887,7.9036 L65.2697,7.9466 L65.2457,7.9386 L65.2737,7.9616 C65.6037,8.2286 66.0097,8.5566 66.3777,8.9126 C66.7377,9.2996 67.0817,9.7576 67.6287,9.9966 C67.7557,10.0656 67.9097,10.1236 68.0627,10.1736 C68.2397,10.2166 68.3637,10.2686 68.6777,10.2636 L68.8707,10.2526 L68.9567,10.2316 L69.1517,10.1836 L69.2247,10.1586 L69.5107,10.0476 C69.8987,9.9136 70.3127,9.8586 70.7297,9.8666 C71.5687,9.8756 72.4427,10.1086 73.3307,10.3826 L74.6867,10.8236 C75.1477,10.9796 75.6287,11.1036 76.0017,11.2536 C76.4057,11.4106 76.6777,11.6036 77.1137,11.9406 C77.5797,12.3036 78.2027,12.5006 78.7087,12.5496 C78.9977,12.5856 79.1967,12.5946 79.4727,12.6016 C79.7717,12.6006 80.0497,12.5546 80.3147,12.4896 C80.8387,12.3486 81.2977,12.1296 81.7447,11.9096 C82.6317,11.4656 83.4537,10.9616 84.2857,10.6586 C84.4907,10.5896 84.6967,10.5226 84.8957,10.4936 C85.1127,10.4656 85.1997,10.4346 85.4757,10.4756 C85.8747,10.5356 86.4627,10.6666 87.0107,10.5556 C87.5977,10.4596 88.0647,10.0616 88.3867,9.9596 C88.7487,9.8356 89.1177,9.8536 89.5817,9.9546 C90.0107,10.0406 90.3827,10.1836 90.6707,10.4776 C90.8217,10.6256 90.9777,10.8226 91.1547,11.0216 C91.3167,11.2116 91.5687,11.4456 91.7037,11.5616 C91.7727,11.6216 91.8657,11.8426 91.9177,12.0696 C91.9767,12.2986 92.0157,12.5496 92.0587,12.8176 C92.1727,13.3406 92.1837,13.8296 92.3257,14.4246 C92.3927,14.7056 92.5287,15.0416 92.7367,15.2656 C92.9287,15.5066 93.1727,15.6376 93.3777,15.8296 C93.8137,16.1746 94.3137,16.3036 94.7787,16.4606 L95.4797,16.6536 C95.7367,16.7136 95.8647,16.7706 96.2137,16.8426 C96.5937,16.9046 96.9697,16.7156 97.1897,16.5616 C97.4187,16.4046 97.5847,16.3006 97.6467,16.3086 L97.7337,16.3356 L97.7857,16.3696 L97.8747,16.4506 C98.0007,16.5626 98.1477,16.7466 98.2877,16.9266 C98.5687,17.3066 98.8537,17.7296 99.1507,18.1556 C99.4507,18.5816 99.7617,19.0146 100.1427,19.4336 C100.3327,19.6436 100.5437,19.8466 100.8117,20.0266 C100.9927,20.2016 101.6177,20.4096 101.7427,20.3916 C102.3447,20.4256 102.6007,20.1906 102.8697,20.0296 C103.1247,19.8486 103.3297,19.6606 103.5207,19.4756 C103.9067,19.1136 104.2367,18.7346 104.5477,18.4586 L104.7607,18.2896 L104.7827,18.2646 L104.9177,18.2156 L104.9407,18.2106 L105.0207,18.1936 L105.1767,18.1606 L105.4837,18.1126 C105.8937,18.0726 106.2367,18.0946 106.6867,18.2006 C107.1427,18.3176 107.7077,18.4156 108.2217,18.3906 C108.4977,18.3816 108.7467,18.3516 108.9717,18.3176 C109.3097,18.2696 109.5437,18.1546 109.7777,18.0476 C110.2347,17.8276 110.6467,17.5816 111.0547,17.4176 C111.2537,17.3376 111.4697,17.2856 111.6177,17.2876 C111.8007,17.3026 111.7997,17.2766 111.9517,17.5096 C112.0797,17.7106 112.1937,17.9666 112.4217,18.2116 C112.7057,18.4746 112.9237,18.5216 113.1807,18.6186 C113.6727,18.7706 114.1347,18.8276 114.5007,19.0246 L114.7437,19.1846 L114.9577,19.4146 C115.0737,19.5756 115.1617,19.7936 115.2567,20.0386 C115.4377,20.5346 115.7027,21.0646 116.0457,21.4816 C116.3777,21.9046 116.7877,22.2666 117.1807,22.5646 L117.3267,22.6766 L117.5777,22.8056 C117.7447,22.8506 117.8957,22.8526 118.0317,22.8406 C118.3087,22.8156 118.5487,22.7446 118.7847,22.6676 C119.2577,22.5196 119.7047,22.3286 120.1427,22.1756 C120.3677,22.0996 120.5427,22.0396 120.7537,22.0326 C120.9767,22.0186 121.2057,22.0076 121.3957,22.0386 L121.6197,22.1016 L121.7617,22.2656 C121.8387,22.3836 122.0007,22.5576 122.1527,22.6276 C122.3057,22.7116 122.4517,22.7516 122.5857,22.7776 C122.8647,22.8356 123.1257,22.8396 123.3497,22.8426 L124.0747,22.8326 C125.0187,22.8106 125.9587,22.7896 126.8877,22.8096 C127.3357,22.8216 127.8587,22.8446 128.1617,22.9176 L128.2977,23.0446 L128.5337,23.2926 L129.0317,23.8516 C129.3127,24.1756 129.5377,24.5656 129.7057,25.0026 L129.8267,25.3436 C129.9057,25.5226 129.9707,25.7126 130.1047,25.8566 C130.3397,26.1766 130.6647,26.3396 130.9467,26.4246 C131.5257,26.5946 132.0437,26.5526 132.5347,26.5066 L133.2447,26.4196 L133.5517,26.3916 L133.5437,26.3716 L133.5797,26.3826 L133.6037,26.3996 C133.9707,26.6646 134.2587,26.9426 134.4827,27.3216 C134.6907,27.7016 135.0617,28.3286 135.5207,28.6596 C135.7447,28.8446 135.9927,28.9966 136.1877,29.1096 C136.3297,29.1866 136.4247,29.2436 136.5787,29.3036 C136.7187,29.3536 136.8807,29.4366 137.1857,29.3926 C137.3547,29.3606 137.5317,29.2316 137.6187,29.1036 C137.7117,28.9766 137.7437,28.8856 137.7737,28.8246 C137.8307,28.6976 137.8527,28.6536 137.8747,28.6316 C137.8997,28.5876 138.0117,28.5446 138.1637,28.5206 C138.7827,28.6796 139.3947,28.8136 140.0157,28.9306 C140.6647,29.0526 141.3397,29.1496 142.0027,29.1846 C142.6867,29.2186 143.3697,29.1976 144.0517,29.0586 C144.7307,28.9336 145.3887,28.6326 145.9537,28.4846 C146.2347,28.4136 146.5207,28.4076 146.7867,28.4606 C147.0797,28.5176 147.3727,28.6196 147.6367,28.7656 C148.1797,29.0426 148.5867,29.5546 149.1297,30.0616 C149.4027,30.3086 149.7297,30.5166 150.0697,30.6416 C150.2507,30.7016 150.4287,30.7526 150.5827,30.7746 C150.7637,30.8106 150.9317,30.8256 151.1067,30.8306 C151.4547,30.8406 151.8027,30.7936 152.1287,30.7216 C152.4517,30.6576 152.7787,30.5586 152.9917,30.6326 C153.5127,30.7726 153.2047,31.6256 153.1697,32.3746 C153.1157,33.1496 153.2817,33.9316 153.5587,34.6086 C153.6877,34.9476 153.8407,35.2766 153.7917,35.5826 C153.7617,35.8996 153.4837,36.1156 153.2287,36.3266 C152.6877,36.7066 152.1057,37.0786 151.5237,37.3656 C150.9417,37.6386 150.2637,37.6696 149.6957,37.3486 C149.4097,37.1996 149.1217,36.9856 148.7777,36.9126 C148.4347,36.8486 148.0907,36.8996 147.7737,37.0676 C147.3497,37.2936 147.2797,37.4996 146.9637,37.7066 C146.6837,37.8896 146.4377,37.9136 146.0897,37.9716 C145.6267,38.0496 144.9657,38.1946 144.0977,38.4806 C144.9667,38.2976 145.6247,38.1866 146.0897,38.1176 C146.4787,38.0596 146.7387,38.0296 147.0437,37.8456 C147.4257,37.6176 147.4607,37.4306 147.8407,37.2246 C148.1137,37.0776 148.4497,37.0346 148.7467,37.0926 C149.0507,37.1596 149.3217,37.3596 149.6227,37.5226 C150.2307,37.8736 150.9767,37.8466 151.5917,37.5596 C152.2077,37.2606 152.7707,36.9086 153.3387,36.5146 C153.5947,36.3116 153.9477,36.0866 154.0227,35.6356 C154.0997,35.1946 153.9177,34.8226 153.8117,34.4896 C153.5647,33.8136 153.4437,33.1086 153.5177,32.4076 C153.5457,32.0516 153.6287,31.7146 153.6767,31.3156 C153.6957,31.1206 153.7027,30.8796 153.6027,30.6496 L153.3977,30.3556 L153.1267,30.1776 C152.7017,30.0376 152.3677,30.1726 152.0537,30.2086 C151.7377,30.2626 151.4317,30.2906 151.1277,30.2666 C150.5207,30.2236 149.9317,30.0136 149.4907,29.5586 C149.0427,29.1156 148.5767,28.4796 147.9287,28.1126 C147.6117,27.9206 147.2777,27.7896 146.9317,27.7026 C146.5597,27.6096 146.1807,27.6086 145.8207,27.6796 C145.1097,27.8396 144.5417,28.0826 143.9247,28.1666 C143.3177,28.2616 142.6877,28.2546 142.0697,28.1976 C141.4297,28.1296 140.8117,28.0186 140.1747,27.8906 C139.5447,27.7586 138.9087,27.6046 138.2947,27.4306 L138.2167,27.4096 L138.1467,27.4166 C137.8647,27.4446 137.4927,27.5016 137.1837,27.8406 C137.0547,27.9756 136.9807,28.1306 136.9277,28.2436 C136.7487,28.1476 136.3017,27.9056 136.1247,27.7246 C135.7857,27.4586 135.6387,27.1576 135.3357,26.6476 C135.0317,26.1366 134.5817,25.7126 134.1497,25.4156 L134.0677,25.3556 C133.8697,25.2526 133.9887,25.3196 133.9347,25.2926 L133.8907,25.2776 L133.5307,25.2336 C133.3847,25.2396 133.2557,25.2536 133.1337,25.2686 L132.4377,25.3616 C131.9927,25.4146 131.5497,25.4286 131.2117,25.3296 C131.0437,25.2796 130.9157,25.2076 130.8527,25.1096 L130.7587,24.9476 L130.6137,24.5466 C130.4017,24.0076 130.1037,23.4866 129.7047,23.0656 L129.1847,22.5146 L128.8937,22.2286 C128.7697,22.1316 128.7127,22.0406 128.4387,21.9216 C127.8157,21.7856 127.3857,21.8256 126.8937,21.8186 C125.9367,21.8316 124.9897,21.8876 124.0467,21.9436 L123.3577,21.9776 C123.1117,21.9816 122.8987,21.9836 122.7127,21.9496 L122.4687,21.8806 L122.3147,21.7436 C122.2527,21.6566 122.1057,21.4676 121.9337,21.3816 C121.7657,21.2966 121.6117,21.2656 121.4747,21.2526 C121.1947,21.2206 120.9507,21.2466 120.7037,21.2676 C120.4417,21.2846 120.1617,21.3846 119.9397,21.4696 C119.4797,21.6496 119.0477,21.8516 118.6137,22.0026 C118.3987,22.0746 118.1797,22.1366 117.9837,22.1556 L117.7357,22.1436 L117.6657,22.1096 L117.5197,21.9986 C117.1277,21.7046 116.7897,21.4026 116.4897,21.0306 C116.1887,20.6626 115.9797,20.2536 115.7957,19.7646 C115.6987,19.5246 115.5947,19.2476 115.4117,18.9936 L115.1137,18.6726 L114.7487,18.4266 C114.2537,18.1696 113.7557,18.1326 113.3437,17.9856 C113.1567,17.9216 112.9077,17.8006 112.8357,17.7106 C112.7207,17.5826 112.6117,17.3596 112.4797,17.1166 C112.4087,16.9936 112.3397,16.8536 112.1767,16.7076 L112.0057,16.6036 L111.9227,16.5726 L111.6847,16.5166 C111.3587,16.4816 111.1067,16.5486 110.8537,16.6126 C110.3537,16.7436 109.9037,16.9436 109.4747,17.0836 C109.2657,17.1536 109.0457,17.2096 108.9107,17.2036 C108.6657,17.2096 108.4437,17.2036 108.2467,17.1826 C107.8157,17.1406 107.4507,17.0296 106.9987,16.8546 C106.5407,16.6686 105.9377,16.5456 105.4037,16.5756 L105.0067,16.6026 L104.8137,16.6276 L104.7167,16.6396 L104.6687,16.6456 L104.5547,16.6716 L104.3637,16.7356 L104.0667,16.8846 C103.9277,16.9746 103.8017,17.0686 103.6917,17.1606 C103.2497,17.5296 102.9097,17.9066 102.5787,18.2376 C102.4137,18.4036 102.2517,18.5506 102.1077,18.6566 L101.8827,18.7896 C101.4107,18.7426 100.7207,17.9386 100.1377,17.2116 C99.8247,16.8236 99.5207,16.4116 99.1597,16.0076 C98.9727,15.8046 98.7887,15.6016 98.5307,15.4056 L98.3257,15.2626 L98.0517,15.1406 C97.8617,15.0856 97.9307,15.1106 97.7887,15.0906 C97.6527,15.0796 97.5347,15.0926 97.4417,15.1186 C97.0347,15.2306 96.8177,15.4706 96.6497,15.5936 C96.4797,15.7286 96.3967,15.7696 96.3007,15.7716 L94.9577,15.5426 C94.5037,15.4656 94.0857,15.3086 93.6787,15.1726 C93.4667,15.1156 93.3167,14.9396 93.1867,14.7926 C93.0547,14.6386 92.9937,14.4686 92.9397,14.2356 C92.8427,13.7966 92.8287,13.2056 92.7327,12.6866 C92.6987,12.4276 92.6647,12.1516 92.6037,11.8656 C92.5317,11.5816 92.4727,11.2706 92.2007,10.9536 C91.9707,10.7316 91.8597,10.6226 91.6957,10.4246 C91.5447,10.2446 91.3937,10.0336 91.1927,9.8226 C90.7867,9.3786 90.2317,9.1476 89.7417,9.0366 C89.2887,8.9176 88.6877,8.8296 88.1377,9.0086 C87.5587,9.2156 87.2367,9.4956 86.8707,9.5246 C86.6857,9.5476 86.4887,9.5486 86.2807,9.5146 L85.9667,9.4596 L85.8087,9.4246 L85.5967,9.3866 C85.4067,9.3406 85.0167,9.3376 84.7687,9.3786 C84.4967,9.4106 84.2457,9.4796 83.9967,9.5526 C83.0197,9.8726 82.1607,10.3656 81.3117,10.7496 C80.8877,10.9386 80.4667,11.1176 80.0667,11.2066 C79.8687,11.2466 79.6787,11.2676 79.5047,11.2626 C79.3107,11.2516 79.0377,11.2256 78.8587,11.1946 C78.4307,11.1226 78.1197,11.0106 77.8097,10.7576 C77.4797,10.4756 76.9557,10.0736 76.4657,9.8756 C75.9537,9.6536 75.5157,9.5296 75.0787,9.3616 L73.7277,8.8646 C72.8067,8.5456 71.8367,8.2346 70.7837,8.1766 C70.2607,8.1466 69.7277,8.1686 69.1877,8.2386 L68.7877,8.3156 L68.6877,8.3376 C68.8907,8.2876 68.7187,8.3256 68.7517,8.3146 L68.7077,8.3186 L68.6187,8.3266 L68.6347,8.3036 L68.5567,8.2566 L68.3277,8.1536 C68.0067,7.9676 67.5517,7.8496 67.1257,7.6466 C66.7067,7.4146 66.3607,7.0966 65.8887,6.7986 L65.7427,6.7106 L65.6607,6.6746 L65.4947,6.6026 C65.3627,6.5526 65.1727,6.5076 65.0137,6.4736 C64.7297,6.4376 64.4597,6.4326 64.1987,6.4526 C63.6807,6.4926 63.1957,6.5966 62.7197,6.7156 L59.9647,7.5056 C59.5217,7.6116 59.0347,7.7566 58.7647,7.6596 C58.4717,7.5586 58.1637,7.2066 57.8777,6.8026 C57.5827,6.4066 57.2897,5.9426 56.8467,5.5526 C56.6187,5.3706 56.3477,5.1986 56.0417,5.1496 C55.8207,5.0926 55.5467,5.0616 55.4027,4.9776 C54.6637,4.6546 53.9717,3.9216 53.3137,3.1886 C52.6357,2.4546 51.9847,1.6326 50.9667,1.0526 C49.9177,0.5456 48.8077,0.5606 47.8117,0.7376 C46.8057,0.9126 45.8897,1.2556 44.9967,1.5246 C44.1087,1.7936 43.2377,2.0066 42.3927,2.0076 L42.0767,2.0006 L41.9977,1.9996 L41.8397,2.0046 L41.7957,2.0086 L41.6187,2.0276 C41.5587,2.0086 41.2267,2.1236 41.0207,2.2416 C40.7847,2.3696 40.6977,2.5026 40.5377,2.6466 C40.0417,3.2426 39.8717,3.8296 39.6797,4.3626 C39.5017,4.8966 39.3647,5.4136 39.2077,5.8646 C39.0587,6.3086 38.8457,6.7146 38.6937,6.8406 L38.6047,6.8826 L38.5497,6.8706 L38.5257,6.8706 L38.4107,6.8546 L38.2127,6.7876 C37.9047,6.6866 37.1917,6.3326 36.2927,6.5726 L36.2417,6.5856 L36.0887,6.6526 L35.8157,6.8126 L35.5277,7.0496 C35.3607,7.2076 35.2587,7.3286 35.1557,7.4446 C34.9617,7.6686 34.8207,7.8296 34.7137,7.9136 L34.6037,7.9426 L34.6437,7.9176 L34.6687,7.9106 L34.5807,7.9146 L34.2167,7.9306 C33.2247,7.9896 32.2257,8.1646 31.4427,8.2896 L31.1727,8.3216 L31.1107,8.3276 C30.8397,8.3406 31.0107,8.3346 30.9387,8.3396 L30.8947,8.3476 L30.7207,8.3826 L30.6237,8.4016 L30.4437,8.4506 L30.0907,8.5686 C29.8637,8.6586 29.7397,8.7516 29.5637,8.8486 C28.9437,9.2596 28.5497,9.7406 28.2087,10.1586 C27.5597,11.0036 26.9437,11.6476 26.6277,11.5876 C26.0917,11.5696 25.2427,11.1656 24.4507,10.6866 C23.6427,10.2066 22.8487,9.6106 21.8857,9.1246 C21.4227,8.8716 20.8327,8.6586 20.2477,8.5136 L19.6707,8.3526 C19.4397,8.2906 19.1947,8.2296 18.9287,8.1836 C18.6427,8.1426 18.4057,8.1046 17.9037,8.1166 L17.6257,8.1366 L17.5377,8.1616 L17.3637,8.2126 L16.9557,8.3426 C16.6277,8.4386 16.3287,8.5846 16.0067,8.7536 C15.6857,8.9296 15.3477,9.1526 15.0317,9.4496 C14.3767,10.0526 14.0687,10.7746 13.8117,11.2556 C13.5537,11.7586 13.3187,12.1646 13.0717,12.5726 C12.9487,12.7746 12.8217,12.9676 12.6907,13.1656 L12.2807,13.7496 C12.0107,14.1256 11.7467,14.4096 11.4517,14.6546 C11.1547,14.8996 10.7827,15.1366 10.3797,15.3826 L10.0747,15.5646 L9.9137,15.6736 L9.7727,15.7896 L9.5967,15.9576 L9.4987,16.0676 C9.2477,16.3596 9.0797,16.6206 8.9147,16.8936 C8.5967,17.4476 8.3307,17.9726 8.1347,18.7526 C8.0907,18.9616 8.0477,19.1816 8.0477,19.5036 L8.0617,19.7606 L8.0547,19.7216 L8.0577,19.7716 L8.0647,19.9716 C8.0807,20.1476 8.0537,20.1596 8.0457,20.1826 L8.0397,20.2296 L8.0107,20.3346 C7.7797,21.4756 6.0297,22.9726 5.1117,22.6996 C4.8917,22.6796 4.6297,22.6626 4.3197,22.6636 C4.0077,22.6726 3.6567,22.6776 3.1847,22.8516 C3.0717,22.8916 2.9457,22.9536 2.8207,23.0246 L2.6297,23.1516 L2.5337,23.2226 L2.3397,23.4086 L2.0847,23.6846 C1.9627,23.7656 1.6037,24.3236 1.4027,24.7436 C1.2147,25.1726 1.1497,25.5176 1.0537,25.9066 C1.0157,26.2566 0.9547,26.6346 0.9557,26.9636 C0.9427,27.6336 0.9947,28.2506 1.0677,28.8306 C1.1837,30.0016 1.7227,30.9626 2.1067,31.9306 C2.4767,32.8976 2.5517,33.9256 2.4107,34.7806 C2.3027,35.5486 1.5107,36.4256 1.0597,37.3786 C0.5767,38.3216 0.1047,39.3296 0.0097,40.4846 C-0.0243,41.0596 0.0187,42.1046 0.3197,42.6036 C0.6107,43.0866 1.4027,45.2016 1.8237,45.4486 C2.8157,46.0296 4.0867,46.0376 5.0327,46.0296 C4.7997,45.7806 4.1977,45.7666 3.9367,45.7336 C1.8007,45.4586 1.7537,44.6886 1.2487,43.4366 C1.0487,42.9446 0.8937,42.4106 0.6547,41.9386 C0.4507,41.5306 0.3917,41.0176 0.4557,40.5376 C0.6027,39.5576 1.0867,38.6426 1.6467,37.8256 C1.9247,37.4086 2.2227,37.0176 2.5337,36.6296 C2.8237,36.2876 3.2657,35.7306 3.4247,35.1326 C3.8307,33.9246 3.6547,32.7586 3.7417,31.6336 C3.8237,30.4956 3.9457,29.3696 3.8137,28.4236 C3.7047,27.4956 3.7417,26.5366 3.9297,26.2186 C3.9877,26.1966 3.8037,26.2356 4.0647,25.9846 L4.1697,25.8676 C4.3097,25.8536 4.6247,25.8486 4.9737,25.8746 L5.4227,25.8786 L5.5107,25.8746 L5.6737,25.8586 L5.9617,25.8156 C6.3287,25.7436 6.6427,25.6226 6.9377,25.4866 Z" id="Fill-37" fill="#FFFFFF" mask="url(#mask-2)"></path>
                </g>
                <g id="Group-42" transform="translate(6.000000, 32.000000)">
                    <mask id="mask-4" fill="white">
                        <use xlink:href="#path-3"></use>
                    </mask>
                    <g id="Clip-41"></g>
                    <path d="M201.4929,58.6087 L109.9949,58.5777 C109.9949,58.5777 106.4119,57.9807 105.7599,57.9957 C104.5149,58.0227 102.9079,57.7707 101.7059,57.4147 C99.4709,56.7497 97.5649,57.0697 95.2749,57.0697 C90.7909,56.9697 87.7109,53.1807 83.2669,53.7507 C80.9539,54.0467 78.7859,51.7047 76.7999,50.8027 C75.8149,50.3547 74.7219,50.2877 73.8079,49.7067 C73.1399,49.2827 72.3379,49.3617 71.7989,48.7307 C71.0999,47.9137 70.9279,46.8747 70.5869,45.8827 C70.0619,44.3537 69.5579,42.8167 69.3409,41.2157 C69.1559,39.8597 70.0349,36.9717 70.0229,35.5997 C70.0099,34.0127 69.6969,30.6757 70.0229,29.1317 C70.2829,27.9047 69.8589,27.6797 70.9339,26.3337 C71.9999,24.9987 71.6469,24.4077 72.6579,23.0187 C73.0589,22.4657 73.1799,21.8677 73.3009,21.3237 C73.5669,20.5537 74.5009,19.7547 74.8049,19.6047 C75.1329,19.4437 75.5089,19.4197 75.8469,19.2847 C76.5719,18.9957 77.2689,18.5997 78.0099,18.3887 C78.6439,18.2087 79.1379,17.8107 79.6029,17.3627 C80.2069,16.7857 80.8579,16.2537 81.5939,15.9167 C82.1539,15.6577 82.7619,15.4867 83.3669,15.4587 C83.8989,15.4327 84.4419,15.6927 84.9659,15.5907 C85.5199,15.4817 86.0779,15.5697 86.6339,15.5097 C87.2459,15.4437 87.8359,15.2477 88.4369,15.1257 C89.0679,14.9977 89.6439,15.0957 90.2729,15.0457 C90.8939,14.9987 91.3329,15.0567 91.9299,15.2017 C92.3759,15.3077 92.8209,15.4157 93.2679,15.5047 C93.7889,15.6087 94.3429,15.5577 94.8759,15.6247 C95.4309,15.6927 95.9219,15.9777 96.4339,16.2127 C97.3349,16.6227 98.2979,16.7337 99.2569,16.7907 C99.9409,16.8317 100.6549,16.6257 101.3559,16.6427 C102.1979,16.6637 103.0409,16.5507 103.8819,16.5347 C104.3259,16.5257 104.8059,16.5037 105.2449,16.6007 C105.7189,16.7077 106.1569,16.8257 106.6399,16.7267 C107.1689,16.6207 107.6799,16.4167 108.1729,16.1747 C108.8059,15.8647 109.0939,15.5437 109.4629,14.8287 C109.7149,14.3377 110.0769,14.1287 110.4819,13.8197 C111.0669,13.3767 112.0819,12.8667 113.2559,12.9267 C114.5459,12.9947 114.7919,13.6877 116.1279,13.6377 C116.2619,13.6327 117.1219,13.7227 118.2509,13.3887 C119.2989,13.0787 119.9249,12.8157 120.4199,12.5407 C120.7379,12.3617 121.2869,12.2207 121.9949,11.6947 C122.2679,11.4917 124.3849,10.2897 126.1809,9.7757 C128.1799,9.2047 128.1699,9.9927 131.5019,9.4697 C132.4269,9.3267 133.4429,8.9577 135.0349,7.7687 C135.1129,7.6627 135.6369,7.3227 135.4859,7.3037 C135.3269,7.2857 134.7329,7.7957 133.8279,8.2497 C130.8769,9.7277 128.6599,7.9757 125.2359,9.1907 C124.1909,9.5617 124.6149,9.2857 121.3559,11.3727 C120.1359,12.1527 118.1629,12.9477 116.6269,12.9447 C113.3769,12.9367 113.8649,11.3727 111.2649,12.3047 C109.8809,12.8017 109.0669,13.1117 108.0349,14.7017 C107.4589,15.5877 105.9529,15.4297 105.0379,15.3557 C104.3159,15.2967 103.9979,15.4237 103.2849,15.5037 C102.6229,15.5787 102.0539,15.7887 101.4099,15.6647 C100.7069,15.5287 99.9999,15.6597 99.2959,15.5687 C98.5339,15.4717 97.5379,15.2267 96.8169,14.9167 C95.7099,14.4377 94.5579,14.3897 93.5139,13.7157 C91.9369,12.6987 89.8089,12.9757 88.0609,12.7487 C87.7469,12.7077 87.4429,12.5357 87.1279,12.4957 C86.3659,12.3977 85.5969,12.3537 84.8339,12.2667 C84.2669,12.2037 83.7589,12.3527 83.2419,12.6177 C81.0449,13.7377 78.4499,12.3897 76.1749,13.1497 C75.4759,13.3837 74.7429,13.3727 74.0379,13.5547 C73.3529,13.7317 72.7389,13.9697 72.0279,14.0117 C71.6179,14.0357 71.2209,13.9157 70.8349,13.7737 C69.9789,13.4627 69.1239,13.0187 68.2469,12.7147 C67.4459,12.4357 66.8349,11.9167 66.5269,11.0107 C66.2679,10.2547 66.1649,9.4507 65.9829,8.6687 C65.8489,8.0897 65.7079,7.5037 65.4739,6.9657 C65.1889,6.3077 64.8319,6.1197 64.3279,5.7157 C63.9379,5.4037 63.5869,5.0877 63.1199,4.9207 C62.3719,4.6547 61.4699,4.3527 60.6889,4.2867 C59.6649,4.1987 58.7089,3.8347 57.8919,3.0547 C57.6569,2.8307 57.3199,2.7147 57.0129,2.6177 C56.6819,2.5117 56.3359,2.4557 55.9929,2.4327 C55.3669,2.3927 54.7319,2.3107 54.1509,2.7057 C53.8259,2.9247 53.4979,3.1357 53.1669,3.3417 C52.9719,3.4627 52.7639,3.5547 52.5699,3.6747 C52.1259,3.9487 51.7509,4.3257 51.2479,4.4467 C50.9079,4.5277 50.5529,4.4807 50.2159,4.5687 C49.8469,4.6657 49.5309,4.9177 49.1339,4.7877 C48.4789,4.5737 47.8329,4.3227 47.1879,4.0717 C46.4959,3.8027 45.8029,3.5397 45.1239,3.2297 C44.6159,2.9987 44.2549,2.4657 43.7389,2.2587 C43.2159,2.0477 42.6529,2.1487 42.1179,2.2357 C41.5819,2.3227 41.0389,2.2797 40.4989,2.2067 C39.9879,2.1347 39.6349,1.6487 39.1939,1.3857 C38.4619,0.9507 36.9919,0.7357 36.2839,1.3437 C35.8339,1.7307 35.3879,2.1247 34.9379,2.5117 C33.9039,3.4027 32.9489,4.4057 32.0239,5.4397 C31.1569,6.4067 30.3839,7.3817 29.2649,7.9877 C28.6469,8.3237 28.0959,8.3717 27.4269,8.4057 C26.7479,8.4417 26.1179,8.4967 25.4459,8.3147 C24.5879,8.0847 23.9849,7.9947 23.1559,8.3517 C22.3779,8.6887 21.6009,9.0447 20.7949,9.2887 C20.3399,9.4257 19.8469,9.4647 19.4149,9.6937 C18.9409,9.9447 18.6599,10.4197 18.2839,10.8127 C17.6189,11.5107 16.7419,11.8707 15.9649,12.3627 C15.1369,12.8867 14.2529,13.0327 13.3199,12.9257 C12.7129,12.8557 12.0409,13.4767 11.4319,13.4237 C9.8629,13.2907 9.4279,13.1177 7.8749,12.8197 C6.8879,12.6317 4.7159,14.1557 3.9359,14.7247 C2.6899,15.6327 7.9059,13.1837 9.7009,14.2977 C10.5659,14.8357 12.0609,14.9707 13.0429,15.0327 C15.0389,15.1607 16.0549,14.6747 18.0109,15.1067 C18.7219,15.2637 20.1329,15.5527 20.8729,15.5917 C21.8569,15.6437 22.9069,16.2627 23.8869,16.4157 C26.3639,16.7977 28.3939,19.1667 31.0069,18.8297 C33.0349,18.5667 35.0889,18.6867 36.9989,17.7537 C37.8039,17.3587 38.5569,16.8187 39.3139,16.3047 C39.8779,15.9227 40.4779,15.5937 41.1189,15.4237 C41.6899,15.2727 42.2839,15.3257 42.8549,15.1777 C43.3949,15.0407 43.8929,14.7437 44.4379,14.6147 C45.1519,14.4477 45.8669,14.2537 46.5909,14.1857 C48.7039,13.9877 50.7639,14.7697 52.5319,16.0517 C52.9409,16.3477 53.3389,16.6637 53.7129,17.0067 C54.5599,17.7887 54.7459,19.5027 55.0929,20.5627 C55.5399,21.9327 55.8029,23.3587 55.9369,24.7937 C56.2279,27.8917 55.9449,31.0237 55.5049,34.0947 C54.9479,37.9827 54.1009,41.8207 53.4549,45.6937 C53.2769,46.7567 53.1009,47.6947 52.6399,48.6897 C52.3889,49.2337 52.1009,49.7597 51.7909,50.2717 C51.5239,50.7147 51.2619,51.3287 50.7739,51.5547 C50.1249,51.8567 49.4229,52.0057 48.7229,52.1437 C48.2509,52.2367 47.7489,52.2857 47.3149,52.5127 C46.8969,52.7337 46.5669,53.1257 46.2479,53.4667 C45.9119,53.8287 45.5809,54.2547 45.1819,54.5757 C44.7349,54.9327 44.2899,55.0217 43.7399,55.1107 C42.4839,55.3137 41.3739,56.1167 40.0989,56.2247 C39.2549,56.2967 38.4259,56.0097 37.5989,55.8857 C36.7589,55.7597 36.1399,55.9397 35.3549,56.1937 C33.6659,56.7417 31.0879,58.5267 29.3059,58.5217 C19.1859,58.4947 1.2049,58.5027 0.0729,58.5217 L0.0729,59.4487 L52.0739,59.4487 C53.2689,59.4697 56.0429,58.1217 57.2829,57.7997 C57.8149,57.6627 58.4519,56.8447 58.9529,56.6337 C59.4959,56.4057 59.8129,56.6337 60.3889,56.6377 C60.8389,56.6407 61.0579,56.8817 61.2889,57.3447 C61.6689,58.1077 61.5769,57.7097 62.3669,58.1867 C62.9229,58.5237 63.5939,58.5837 64.1979,58.7857 C64.6779,58.9457 65.0919,59.3107 65.5909,59.3857 C66.7499,59.5607 67.7059,58.8577 68.8799,58.9147 C69.5339,58.9447 70.9089,59.3047 71.4839,59.5077 C72.3759,59.8227 73.4699,60.1637 74.4029,59.9147 C74.9839,59.7597 75.5839,59.3737 76.1969,59.2617 C77.0029,59.1177 78.0189,59.3097 78.8329,59.2337 C79.4189,59.1787 82.6289,59.4107 84.0539,59.2947 C97.2769,59.3747 201.4959,59.4487 201.4959,59.4487 L201.4929,58.6087 Z M66.2249,27.5217 C62.4969,31.3037 62.9919,35.6907 64.3289,41.9537 C62.2359,35.6907 61.3889,30.4417 65.9139,26.2127 C68.0069,24.2557 67.6429,22.4627 70.0609,21.7977 C68.0389,23.2497 68.7489,24.9627 66.2249,27.5217 Z M59.0969,28.3127 C60.0119,29.4977 59.7809,32.3497 59.9049,33.9887 C60.1759,37.5887 61.9709,41.0597 63.2129,44.6557 C64.0159,46.9817 66.0369,49.3967 67.7609,51.0317 C69.3369,52.5257 71.0429,52.0367 73.3539,53.0367 C70.6209,52.4267 69.0299,52.7937 67.2079,51.1527 C65.3579,49.4877 62.9669,47.0937 62.1239,44.4547 C61.0169,40.9917 59.0749,37.7547 59.0969,34.3197 C59.1079,32.4857 59.3119,29.6307 59.0969,28.3127 Z M74.0949,17.9587 C74.4349,17.7557 74.5819,17.4627 74.6969,17.0637 C74.8909,16.3877 75.1109,15.7107 75.4059,15.0867 C75.5779,14.7227 75.8759,14.4067 76.2919,14.3227 C76.5289,14.2747 76.7589,14.1797 76.9919,14.1027 C77.2979,14.0007 77.7319,14.1637 78.0589,14.1557 C78.5709,14.1447 79.0809,14.0877 79.5929,14.0877 C80.5449,14.0907 81.1709,13.9167 82.1239,13.8807 C82.1819,13.8787 83.1869,13.4977 83.6659,13.4547 C84.0889,13.4177 84.5069,13.3057 84.9269,13.2207 C85.2999,13.1447 85.6529,13.1497 85.9759,13.5657 C85.8419,13.6007 85.7419,13.6257 85.6429,13.6517 C84.9889,13.8327 84.3049,13.8897 83.6639,14.0787 C82.2739,14.4857 80.9109,15.0117 79.5569,15.5557 C79.0729,15.7517 78.6479,16.1387 78.1969,16.4387 C78.0049,16.5657 77.8239,16.7247 77.6179,16.8097 C76.7739,17.1607 76.0569,17.7617 75.3069,18.2947 C74.7389,18.6977 73.3709,19.2207 72.6579,19.2237 C72.9709,18.5587 73.5539,18.2787 74.0949,17.9587 Z M66.2619,13.1737 C66.5279,13.3307 66.8059,13.4647 67.0769,13.5417 C67.5989,13.6897 68.1599,13.7217 68.6899,13.8607 C69.2029,13.9957 69.7109,14.1557 70.2139,14.3317 C70.9129,14.5727 71.4799,15.0837 72.2549,15.1727 C72.3959,15.1897 72.6089,15.1607 72.7419,15.2177 C72.9769,15.3227 73.1079,15.7337 73.1219,16.0057 C73.1289,16.1477 73.1089,16.2897 73.0949,16.4287 C73.0699,16.6697 72.9779,16.7507 72.8389,16.9417 C72.6809,17.1577 72.2699,17.1077 72.0899,17.2967 C71.7679,17.6267 71.2839,17.8167 70.9659,18.1497 C70.8839,18.2357 70.4499,18.4677 69.9309,18.7287 L68.8959,19.0857 L67.8849,19.7497 C66.7549,20.8417 66.4579,20.5647 64.9799,21.0487 C65.5119,16.1127 65.9559,14.0257 66.2619,13.1737 Z M39.2629,3.3867 C39.9129,3.5897 40.5849,3.6717 41.2549,3.7477 C41.9189,3.8217 42.5889,3.9967 43.2509,3.9007 C43.5969,3.8517 43.6499,4.1037 43.8599,4.3327 C44.1509,4.6487 44.5459,4.8027 44.9249,4.9277 C45.2729,5.0427 45.6079,5.2187 45.9379,5.3927 C46.0329,5.4437 46.0919,5.5827 46.2429,5.7787 C45.3329,5.8877 44.5409,6.0987 43.7619,6.0477 C42.7149,5.9777 41.6499,5.8307 40.6869,5.2817 C40.2379,5.0267 39.8209,4.6987 39.3989,4.3877 C38.9869,4.0847 38.4589,3.7767 38.1169,3.3817 C38.4479,3.2937 38.9369,3.2857 39.2629,3.3867 Z M30.7379,10.0387 C31.2949,9.3407 31.8809,8.6737 32.4589,8.0007 L32.6149,8.0117 L32.6489,8.3097 C32.6539,8.7197 32.6189,9.1337 32.6619,9.5387 C32.7399,10.2927 32.5969,11.5597 32.2869,12.3077 C31.6239,11.4617 31.0159,11.7157 30.1299,11.0167 C30.3209,10.7057 30.4979,10.3387 30.7379,10.0387 Z M34.1659,17.0167 C32.6099,17.1497 30.8129,17.4207 29.3219,16.7797 C28.4319,16.3967 27.5229,16.0737 26.6329,15.6937 C25.7969,15.3377 24.9509,14.7927 24.0519,14.5607 C23.0569,14.3057 22.0379,14.2677 21.0429,13.9627 C20.6109,13.8297 20.1759,13.5467 19.7459,13.3477 C19.2399,13.1127 18.7919,13.1187 18.3009,13.0487 C18.3959,12.8697 18.5029,12.6957 18.6129,12.5257 C18.9219,12.0477 19.2849,11.8827 19.6389,11.4517 C19.7989,11.2537 20.0139,10.8067 20.2619,10.7627 C20.8619,10.6547 21.4799,10.6637 22.0729,10.5247 C23.0989,10.2877 24.1279,10.3547 25.1569,10.4057 C25.3719,10.4177 25.5899,10.5137 25.7939,10.6057 C26.0759,10.7317 26.3409,10.9127 26.6249,11.0307 C27.2789,11.3047 27.9369,11.5697 28.5939,11.8377 C29.4769,12.1987 30.1499,12.7687 31.0069,13.1367 C31.1749,13.2087 31.3729,13.2417 31.5029,13.3647 C32.2639,14.0847 33.1529,14.4867 34.0889,14.7887 C34.4359,14.8997 34.7729,15.0587 35.1239,15.1487 C35.7739,15.3167 36.4309,15.4477 37.0859,15.5987 L37.2789,15.7357 C37.1009,15.8327 35.1039,16.9367 34.1659,17.0167 Z M50.1679,12.0507 C49.5689,11.8957 48.9199,11.9187 48.2979,11.9617 C47.4919,12.0147 46.6899,12.1607 45.8879,12.2777 C45.4679,12.3407 45.0509,12.4337 44.6329,12.5067 C43.7149,12.6667 42.8189,12.9297 41.9359,13.2437 C41.5759,13.3717 41.2319,13.5947 40.9229,13.8437 C40.1689,14.4507 39.4699,14.2237 38.6039,14.1127 C38.1489,14.0547 37.5139,14.2807 37.0339,14.2157 C36.6719,14.1677 36.3079,14.1237 35.9509,14.0497 C35.6929,13.9987 35.4449,13.8667 35.1859,13.8377 C34.9039,13.8037 34.4179,13.1317 34.3809,12.9827 C34.1659,12.0967 33.9099,11.2227 33.9239,10.2797 C33.9329,9.5777 33.8009,8.8647 33.8629,8.1717 C33.9249,7.4777 34.0139,6.7037 34.3329,6.1417 C34.7819,5.3537 35.3839,4.6077 36.2739,4.4077 C36.5299,4.3507 36.8389,4.4367 37.0899,4.5527 C37.4969,4.7417 37.8799,5.0017 38.2659,5.2437 C38.5509,5.4207 38.8249,5.6177 39.1019,5.8077 C39.3759,5.9997 39.6459,6.1987 39.9229,6.3827 C40.0579,6.4727 40.2019,6.5607 40.3529,6.6067 C40.9779,6.7977 41.6139,6.9177 42.2279,7.1857 C42.6869,7.3867 43.2229,7.4517 43.7219,7.4307 C45.1459,7.3757 46.4929,7.8237 47.8609,8.1447 C48.7779,8.3597 49.3149,9.1797 49.9369,9.9217 C50.4929,10.5857 50.8569,11.0867 51.3769,11.7977 C50.8529,12.2047 50.7019,12.1877 50.1679,12.0507 Z M55.8859,15.1137 L55.8959,15.1057 C55.7119,15.0007 55.6089,14.2617 55.5069,14.0457 C55.3469,13.7117 55.1499,13.3947 54.9289,13.0967 C54.4719,12.4817 53.9149,11.9487 53.3469,11.4377 C52.2149,10.4217 50.9369,9.4707 50.1499,8.1397 C49.9449,7.7937 49.7779,7.4227 49.6649,7.0367 C49.5759,6.7337 49.6339,6.6087 49.8059,6.3457 C49.9479,6.1297 50.3449,6.1297 50.5919,6.0557 C51.4829,5.7867 52.3059,5.8577 53.1089,5.3867 C53.8139,4.9727 54.4759,4.2287 55.2579,3.9917 C56.2039,3.7037 57.0739,4.4357 57.9179,4.9507 C59.4329,5.8737 60.8259,6.1827 62.3419,7.1047 C63.3459,7.7157 64.4359,8.4437 64.7049,9.5877 C64.9249,10.5267 64.5199,11.4827 64.2449,12.4067 C63.5279,14.8107 63.6499,17.4077 62.8899,19.7987 C62.3059,21.6397 61.1949,23.3117 59.7239,24.5647 C58.4699,23.6507 57.8129,22.1237 57.4529,20.6137 C57.0219,18.8177 57.0739,16.6177 55.8859,15.1137 Z M58.2509,52.8987 L58.1579,53.0727 C58.0269,53.3117 57.9069,53.8957 57.6949,54.0347 C57.3459,54.2587 57.1459,54.5857 56.7339,54.7547 C56.6099,54.8077 56.4249,54.7487 56.2889,54.7597 C56.0749,54.7747 55.7679,54.9687 55.6389,55.1487 C55.4119,55.4687 54.7409,55.5797 54.1309,55.6167 C54.1849,55.3227 54.2429,55.0147 54.2429,55.0147 C54.2329,55.0707 54.2749,54.8777 54.5179,54.6937 C54.8899,54.5307 55.2609,54.3567 55.6269,54.1737 C55.8239,54.0767 55.9899,53.8947 56.1709,53.7497 L56.4029,53.5697 C56.7429,53.3927 57.0279,53.1097 57.3259,52.8557 C57.5519,52.6627 58.1059,52.3957 58.4049,52.3787 C58.3409,52.5477 58.3329,52.7387 58.2509,52.8987 Z M48.6869,54.6497 C53.0479,53.5177 57.3219,48.2527 58.0699,45.8577 C58.9889,42.9197 56.8229,39.7337 58.1169,37.1057 C57.7209,39.7067 59.4569,43.4317 58.8619,46.1297 C58.2659,48.8267 52.7889,55.1707 48.6869,54.6497 Z M67.8579,57.4987 C67.5799,57.5727 67.6029,57.6097 67.3409,57.7357 C67.1849,57.8097 66.6809,57.9047 66.5539,58.0427 C66.3909,58.2167 65.8739,57.8547 65.7039,57.6897 C65.3439,57.3387 64.0989,57.2097 64.0269,57.1647 C63.6759,56.9617 62.9409,56.5127 62.7969,55.9797 C62.7449,55.7937 62.1069,54.7157 61.9559,54.6087 C61.7839,54.4897 61.5199,54.2947 61.3259,54.2477 C61.1019,54.1927 60.7429,54.1477 60.5169,54.0967 C60.2999,54.0517 59.8929,54.1377 59.6799,54.0697 C59.3809,53.9807 59.1329,53.0467 59.2579,52.8887 C59.4449,52.6527 59.6289,52.3627 59.7379,52.0817 C59.8259,51.8487 59.8199,51.5777 59.9259,51.3527 C60.2189,50.7327 60.5109,50.1037 60.8369,49.5077 C60.9269,49.3427 61.4029,49.0697 61.5709,48.9987 C62.1659,48.7417 62.4199,49.5397 62.7479,49.8817 C63.1649,50.3187 63.6179,50.7207 64.0829,51.1057 C64.3829,51.8257 64.7009,52.5317 65.1249,53.1437 C65.2579,53.3357 65.4059,53.5307 65.4459,53.7767 C65.4469,53.7967 65.6119,54.3557 65.7729,54.5797 C65.9349,54.7987 66.2489,55.0077 66.4609,55.1617 C67.0389,55.5807 67.5879,56.0557 68.0059,56.7177 C68.1059,56.8747 68.3289,56.9747 68.3209,57.1657 C68.3059,57.4997 68.0379,57.4547 67.8579,57.4987 Z M74.6279,57.3367 C74.1829,57.4057 73.5699,58.0047 73.0939,57.7267 C72.2769,57.2547 71.4769,57.0887 70.5909,56.8537 C69.7249,56.6247 69.8089,56.1907 69.0949,55.6297 C68.9429,55.5097 68.3709,55.0687 68.3139,54.8777 C69.7679,54.3107 70.8879,54.9697 72.4079,55.0757 C72.5979,55.0877 74.4029,55.2207 74.7709,55.3867 C75.5139,55.7217 77.0949,56.3267 77.0879,56.6367 C77.0829,56.8537 74.8789,57.2967 74.6279,57.3367 Z" id="Fill-40" fill="#FFFFFF" mask="url(#mask-4)"></path>
                </g>
            </g>
        </g>
    </g>
</svg>